<svg width="33" height="35" viewBox="0 0 33 35" fill="none" xmlns="http://www.w3.org/2000/svg">
<path d="M28.2701 5.57007H18.0801V8.91007H24.92C26.77 8.91007 28.2701 7.41007 28.2701 5.57007Z" fill="#EB660B"/>
<path d="M32.2001 0H21.4301C20.5433 -3.95072e-06 19.6927 0.351568 19.0648 0.977654C18.4368 1.60374 18.0827 2.45325 18.0801 3.34H28.85C30.7 3.34 32.2001 1.84 32.2001 0Z" fill="#EB660B"/>
<path d="M23.4399 16.0401L11.77 14.5501C11.4107 14.5112 11.0721 14.3628 10.8002 14.1248C10.5282 13.8869 10.3361 13.571 10.2499 13.2201C10.0099 12.1201 10.8499 11.1401 11.9199 11.1401H18.08V8.90008H15.5599C15.117 8.90008 14.6923 8.72413 14.3791 8.41094C14.0659 8.09776 13.89 7.67299 13.89 7.23008C13.89 6.78717 14.0659 6.3624 14.3791 6.04921C14.6923 5.73602 15.117 5.56007 15.5599 5.56007H18.08V3.33008H0.449951V4.76008C0.449951 7.10008 2.18996 9.06008 4.51996 9.36008H0.449951V10.8001C0.449951 13.1301 2.18996 15.1001 4.51996 15.4001H0.449951V16.8401C0.449951 19.1701 2.18995 21.1401 4.50995 21.4401L22.45 23.7701C23.4 23.8901 24.0899 24.7701 23.9299 25.7501C23.7899 26.6001 22.9899 27.1801 22.1299 27.1801H8.26996C7.24397 27.1774 6.22752 27.3773 5.27887 27.7681C4.33022 28.1589 3.46799 28.733 2.74158 29.4576C2.01516 30.1821 1.43883 31.0429 1.04559 31.9905C0.652357 32.9382 0.449948 33.9541 0.449951 34.9801H21.9299C26.9299 34.9801 31.2999 31.2701 31.7299 26.3001C31.9407 23.8492 31.1956 21.4118 29.6505 19.4977C28.1054 17.5836 25.8801 16.3411 23.4399 16.0301" fill="#434F8B"/>
</svg>
